<?xml version="1.0" encoding="UTF-8" standalone="no"?>
<!-- Created with Inkscape (http://www.inkscape.org/) -->

<svg
   xmlns:dc="http://purl.org/dc/elements/1.1/"
   xmlns:cc="http://creativecommons.org/ns#"
   xmlns:rdf="http://www.w3.org/1999/02/22-rdf-syntax-ns#"
   xmlns:svg="http://www.w3.org/2000/svg"
   xmlns="http://www.w3.org/2000/svg"
   xmlns:sodipodi="http://sodipodi.sourceforge.net/DTD/sodipodi-0.dtd"
   xmlns:inkscape="http://www.inkscape.org/namespaces/inkscape"
   width="64"
   height="64"
   viewBox="0 0 64.000001 64.000001"
   id="svg2"
   version="1.1"
   inkscape:version="0.91 r13725"
   sodipodi:docname="mountain_2.svg">
  <defs
     id="defs4" />
  <sodipodi:namedview
     id="base"
     pagecolor="#ffffff"
     bordercolor="#666666"
     borderopacity="1.0"
     inkscape:pageopacity="0.0"
     inkscape:pageshadow="2"
     inkscape:zoom="2.1386719"
     inkscape:cx="162.74032"
     inkscape:cy="100.84445"
     inkscape:document-units="px"
     inkscape:current-layer="layer1"
     showgrid="false"
     inkscape:window-width="1600"
     inkscape:window-height="821"
     inkscape:window-x="0"
     inkscape:window-y="24"
     inkscape:window-maximized="1"
     showguides="false"
     units="px" />
  <metadata
     id="metadata7">
    <rdf:RDF>
      <cc:Work
         rdf:about="">
        <dc:format>image/svg+xml</dc:format>
        <dc:type
           rdf:resource="http://purl.org/dc/dcmitype/StillImage" />
        <dc:title></dc:title>
      </cc:Work>
    </rdf:RDF>
  </metadata>
  <g
     inkscape:label="Layer 1"
     inkscape:groupmode="layer"
     id="layer1"
     transform="translate(0,-988.36216)">
    <rect
       style="fill:#00ff00;fill-opacity:1;stroke:#000000;stroke-width:0.10302893;stroke-miterlimit:4;stroke-dasharray:none"
       id="rect4136"
       width="63.896973"
       height="63.896973"
       x="0.051514465"
       y="988.4137" />
    <path
       style="fill:#666666;fill-opacity:1;stroke:none;stroke-width:0.1;stroke-miterlimit:4;stroke-dasharray:none"
       d="m 34.232496,992.79455 0.16533,-0.16532 11.07607,55.10887 -44.96555021,0 z"
       id="rect4316"
       inkscape:connector-curvature="0"
       sodipodi:nodetypes="ccccc" />
    <path
       style="fill:#e6e6e6;fill-rule:evenodd;stroke:#000000;stroke-width:0;stroke-linecap:butt;stroke-linejoin:miter;stroke-miterlimit:4;stroke-dasharray:none;stroke-opacity:1"
       d="m 25.872736,1006.3901 c 6.61313,6.9039 11.16503,0 11.16503,0"
       id="path4334"
       inkscape:connector-curvature="0" />
    <path
       style="fill:#e6e6e6;fill-opacity:1;stroke:none;stroke-width:0.1;stroke-miterlimit:4;stroke-dasharray:none"
       d="m 36.894036,1006.6603 c -0.34957,-0.2354 -0.39678,-0.2439 -0.48109,-0.086 -0.0615,0.1149 -0.13465,0.1168 -4.95348,0.1315 l -4.8911,0.015 -0.17734,-0.1908 -0.17735,-0.1908 -0.22229,0.2121 c -0.12227,0.1166 -0.23368,0.2006 -0.24759,0.1867 -0.0349,-0.035 8.52523,-13.97298 8.59576,-13.99605 0.0496,-0.0162 2.9165,14.06105 2.87254,14.10495 -0.009,0.01 -0.15233,-0.075 -0.31806,-0.1861 z"
       id="path4336"
       inkscape:connector-curvature="0" />
    <path
       style="fill:#666666;fill-opacity:1;stroke:none;stroke-width:0.1;stroke-miterlimit:4;stroke-dasharray:none"
       d="m 50.035836,1006.5862 0.12367,-0.1236 8.2851,41.2224 -33.63505,0 z"
       id="rect4316-3"
       inkscape:connector-curvature="0"
       sodipodi:nodetypes="ccccc" />
    <path
       style="fill:#e6e6e6;fill-opacity:1;stroke:none;stroke-width:0.1;stroke-miterlimit:4;stroke-dasharray:none"
       d="m 52.150706,1018.0739 c -0.26148,-0.176 0.11648,-0.1411 0.0534,-0.023 -0.046,0.086 -1.46456,2.5672 -5.06914,2.5782 l -2.83206,-3.6259 -0.13265,-0.1427 -0.13266,-0.1427 -0.16628,0.1586 c -0.0915,0.087 -0.1748,0.1501 -0.1852,0.1397 -0.0261,-0.026 6.37703,-10.4521 6.42978,-10.4693 0.0371,-0.012 2.1816,10.5179 2.14872,10.5508 -0.007,0.01 0.25801,0.6881 0.13404,0.6046 z"
       id="path4336-6"
       inkscape:connector-curvature="0"
       sodipodi:nodetypes="cccccccccccc" />
  </g>
</svg>
