<?xml version="1.0" encoding="UTF-8" standalone="no"?>
<!-- Created with Inkscape (http://www.inkscape.org/) -->

<svg
   xmlns:dc="http://purl.org/dc/elements/1.1/"
   xmlns:cc="http://creativecommons.org/ns#"
   xmlns:rdf="http://www.w3.org/1999/02/22-rdf-syntax-ns#"
   xmlns:svg="http://www.w3.org/2000/svg"
   xmlns="http://www.w3.org/2000/svg"
   xmlns:sodipodi="http://sodipodi.sourceforge.net/DTD/sodipodi-0.dtd"
   xmlns:inkscape="http://www.inkscape.org/namespaces/inkscape"
   width="64"
   height="64"
   viewBox="0 0 64.000001 64.000001"
   id="svg2"
   version="1.1"
   inkscape:version="0.91 r13725"
   sodipodi:docname="water_2.svg">
  <defs
     id="defs4" />
  <sodipodi:namedview
     id="base"
     pagecolor="#ffffff"
     bordercolor="#666666"
     borderopacity="1.0"
     inkscape:pageopacity="0.0"
     inkscape:pageshadow="2"
     inkscape:zoom="3.0245388"
     inkscape:cx="161.89298"
     inkscape:cy="50.253213"
     inkscape:document-units="px"
     inkscape:current-layer="layer1"
     showgrid="false"
     inkscape:window-width="1600"
     inkscape:window-height="821"
     inkscape:window-x="0"
     inkscape:window-y="24"
     inkscape:window-maximized="1"
     units="px" />
  <metadata
     id="metadata7">
    <rdf:RDF>
      <cc:Work
         rdf:about="">
        <dc:format>image/svg+xml</dc:format>
        <dc:type
           rdf:resource="http://purl.org/dc/dcmitype/StillImage" />
        <dc:title></dc:title>
      </cc:Work>
    </rdf:RDF>
  </metadata>
  <g
     inkscape:label="Layer 1"
     inkscape:groupmode="layer"
     id="layer1"
     transform="translate(0,-988.36216)">
    <rect
       style="fill:#00ff00;fill-opacity:1;stroke:#000000;stroke-width:0.10302893;stroke-miterlimit:4;stroke-dasharray:none"
       id="rect4136"
       width="63.896973"
       height="63.896973"
       x="0.051514465"
       y="988.4137" />
    <path
       style="fill:#0000ff;fill-opacity:1;stroke:#000000;stroke-width:0.5;stroke-miterlimit:4;stroke-dasharray:none"
       d="m 60.289276,1029.7188 c 0,13.2039 -18.6141,20.4361 -33.82657,20.4361 -15.21247,0 -22.0892502,-38.642 -22.0892502,-51.84585 0,-13.20386 18.9447302,-0.929 34.1572102,-0.929 15.21247,0 21.75861,19.13485 21.75861,32.33875 z"
       id="path4241"
       inkscape:connector-curvature="0"
       sodipodi:nodetypes="sssss" />
    <path
       style="fill:#000080;fill-opacity:1;stroke:none;stroke-width:0.1;stroke-miterlimit:4;stroke-dasharray:none"
       id="path4271"
       d="m 20.943976,1020.5213 c 0.30171,-0.3045 0.55515,-0.6518 0.81187,-0.9938 0.34957,-0.4288 0.68078,-0.8724 1.05107,-1.2837 0.8681,-0.8203 1.92531,-1.6348 3.12994,-1.7842 0.50001,-0.031 1.00178,-0.027 1.50259,-0.024 0.47868,0 0.95739,0 1.43608,0 0.65495,-0.051 1.17154,0.3074 1.69372,0.6494 0.57442,0.4237 1.11637,0.8863 1.69556,1.3053 0.49223,0.3222 0.90886,0.7259 1.30722,1.1544 0.33028,0.3635 0.66779,0.7203 1.00991,1.0727 0.36913,0.3656 0.83481,0.6055 1.31562,0.7894 0.40181,0.1364 0.82845,0.1488 1.24846,0.1588 0.51185,0.01 1.02377,0 1.53565,9e-4 0.45809,0 0.91618,-0.01 1.37428,0 0.54466,0.031 1.03193,0 1.55182,-0.1657 0.42441,-0.1971 0.86364,-0.3578 1.30403,-0.5142 0.20127,-0.047 0.40165,-0.083 0.60045,-0.1404 0,0 -1.93345,1.4816 -1.93345,1.4816 l 0,0 c -0.19749,0.047 -0.39725,0.087 -0.58756,0.1594 -0.43432,0.1625 -0.86639,0.3304 -1.30166,0.4896 -0.5273,0.1278 -1.05884,0.1292 -1.59945,0.1182 -0.45633,0 -0.91266,10e-4 -1.36899,0 -0.51641,0 -1.03294,0 -1.5493,0 -0.43928,-0.02 -0.88239,-0.062 -1.29231,-0.2342 -0.49715,-0.221 -0.98275,-0.4835 -1.37046,-0.8723 -0.34179,-0.3544 -0.67795,-0.7141 -1.00705,-1.0804 -0.38599,-0.4171 -0.79835,-0.8018 -1.26913,-1.1237 -0.56992,-0.4214 -1.10606,-0.884 -1.68202,-1.2959 -0.53834,-0.3347 -0.99,-0.5764 -1.64375,-0.518 -0.47644,-7e-4 -0.95284,-0.01 -1.4293,-0.01 -0.49531,3e-4 -0.9958,-0.014 -1.48553,0.071 -0.82675,0.2309 -1.73572,0.9488 1.58587,-1.0058 0.0577,-0.034 -0.12039,0.059 -0.17704,0.095 -0.16234,0.1024 -0.2122,0.1601 -0.35576,0.2911 -0.3944,0.3821 -0.70765,0.8331 -1.0566,1.2553 -0.25998,0.3376 -0.50881,0.6828 -0.77611,1.0146 0,0 -2.26867,0.9397 -2.26867,0.9397 z"
       inkscape:connector-curvature="0" />
    <path
       style="fill:#000080;fill-opacity:1;stroke:none;stroke-width:0.1;stroke-miterlimit:4;stroke-dasharray:none"
       id="path4273"
       d="m 52.282996,1032.5956 c -0.3303,-0.268 -0.63442,-0.5637 -0.94626,-0.8519 -0.32172,-0.2682 -0.72503,-0.375 -1.12941,-0.4424 -0.39372,-0.1047 -0.79672,-0.1594 -1.2023,-0.188 -0.38443,-0.021 -0.76959,-0.019 -1.15444,-0.018 -0.34078,10e-4 -0.68155,0 -1.02233,0 -0.3755,0 -0.75098,0 -1.12647,0 -0.48378,-0.013 -0.96482,-0.019 -1.43223,0.1187 0.3249,-0.2339 -0.90893,0.4717 -0.537,0.2583 3.39969,-1.9509 2.26094,-1.3479 1.55526,-0.8532 -0.42496,0.2797 -0.84379,0.5654 -1.21253,0.9173 -0.71771,0.7114 -1.54869,1.0259 -2.55417,1.4994 -0.0829,0.039 -0.52691,-0.2645 -0.59882,-0.3137 -0.26209,-0.188 -0.50073,-0.3923 -0.71792,-0.6305 0,0 2.07718,-1.2616 2.07718,-1.2616 l 0,0 c 0.2056,0.2195 0.43527,0.4074 0.68548,0.575 0.10924,0.062 0.21753,0.1393 0.34724,0.1549 0.048,0.01 0.18523,-0.042 0.1442,-0.016 -4.09535,2.5566 -2.2019,1.3803 -1.62783,0.9224 0.35552,-0.3722 0.75554,-0.6876 1.19618,-0.9554 0.98824,-0.7038 2.01353,-1.4152 3.17902,-1.772 0.48374,-0.084 0.97058,-0.074 1.4602,-0.071 0.37972,0 0.75944,-0.01 1.13918,0 0.34005,-5e-4 0.6801,-10e-4 1.02015,-10e-5 0.38888,0 0.77822,0.01 1.16614,0.036 0.40944,0.044 0.81296,0.1201 1.21429,0.2121 0.43498,0.1016 0.86806,0.2489 1.20293,0.5574 0.30818,0.2993 0.62563,0.5856 0.968,0.8462 0,0 -2.09374,1.2831 -2.09374,1.2831 z"
       inkscape:connector-curvature="0" />
    <path
       style="fill:#000080;fill-opacity:1;stroke:none;stroke-width:0.1;stroke-miterlimit:4;stroke-dasharray:none"
       id="path4275"
       d="m 12.034516,1006.1841 c 0.51276,0.013 1.02572,0.012 1.53859,0.01 0.53942,8e-4 1.07885,0 1.61828,-8e-4 0.5701,0 1.1402,10e-4 1.71031,0 0.54155,-3e-4 1.0831,0 1.62465,-9e-4 0.52553,0.013 1.05239,-0.053 1.56454,0.085 0.43616,0.081 0.81639,0.2783 1.20367,0.4828 0.3712,0.1711 0.74782,0.3083 1.15118,0.3769 0.36468,0.048 0.73351,0.045 1.10061,0.048 0.47797,-0.01 0.95643,0.019 1.43268,-0.025 0.29103,-0.033 0.54491,-0.1645 0.79683,-0.3039 0.0891,-0.049 0.35331,-0.2031 0.26485,-0.1526 -1.87671,1.0719 -2.38672,1.418 -1.56413,0.8723 0.30128,-0.221 0.15045,-0.1088 0.45241,-0.3367 0,0 2.24699,-0.8939 2.24699,-0.8939 l 0,0 c -0.30337,0.2272 -0.15317,0.1118 -0.45062,0.3462 -0.95508,0.6881 -0.26727,0.2043 -2.56367,1.5265 -0.34869,0.2008 -0.72491,0.3491 -1.12932,0.3779 -0.48486,0.025 -0.97045,0.019 -1.45584,0.019 -0.37886,0 -0.76041,0 -1.13292,-0.083 -0.41253,-0.097 -0.80417,-0.2538 -1.18578,-0.4379 -0.37068,-0.1979 -0.75193,-0.3481 -1.16648,-0.4292 -0.50231,-0.087 -1.01516,-0.037 -1.52265,-0.049 -0.54075,0 -1.08152,-6e-4 -1.62229,-9e-4 -0.5718,7e-4 -1.14361,-6e-4 -1.71541,0 -0.53862,3e-4 -1.07722,0 -1.61584,-9e-4 -0.52203,0 -1.04414,0 -1.56607,0.01 0,0 1.98543,-1.4425 1.98543,-1.4425 z"
       inkscape:connector-curvature="0" />
  </g>
</svg>
