<?xml version="1.0" encoding="UTF-8" standalone="no"?>
<!-- Created with Inkscape (http://www.inkscape.org/) -->

<svg
   xmlns:dc="http://purl.org/dc/elements/1.1/"
   xmlns:cc="http://creativecommons.org/ns#"
   xmlns:rdf="http://www.w3.org/1999/02/22-rdf-syntax-ns#"
   xmlns:svg="http://www.w3.org/2000/svg"
   xmlns="http://www.w3.org/2000/svg"
   xmlns:sodipodi="http://sodipodi.sourceforge.net/DTD/sodipodi-0.dtd"
   xmlns:inkscape="http://www.inkscape.org/namespaces/inkscape"
   width="64"
   height="64"
   viewBox="0 0 64.000001 64.000001"
   id="svg2"
   version="1.1"
   inkscape:version="0.91 r13725"
   sodipodi:docname="water_1.svg">
  <defs
     id="defs4" />
  <sodipodi:namedview
     id="base"
     pagecolor="#ffffff"
     bordercolor="#666666"
     borderopacity="1.0"
     inkscape:pageopacity="0.0"
     inkscape:pageshadow="2"
     inkscape:zoom="3.0245388"
     inkscape:cx="161.89298"
     inkscape:cy="30.059563"
     inkscape:document-units="px"
     inkscape:current-layer="layer1"
     showgrid="false"
     inkscape:window-width="1600"
     inkscape:window-height="821"
     inkscape:window-x="0"
     inkscape:window-y="24"
     inkscape:window-maximized="1"
     units="px" />
  <metadata
     id="metadata7">
    <rdf:RDF>
      <cc:Work
         rdf:about="">
        <dc:format>image/svg+xml</dc:format>
        <dc:type
           rdf:resource="http://purl.org/dc/dcmitype/StillImage" />
        <dc:title></dc:title>
      </cc:Work>
    </rdf:RDF>
  </metadata>
  <g
     inkscape:label="Layer 1"
     inkscape:groupmode="layer"
     id="layer1"
     transform="translate(0,-988.36216)">
    <rect
       style="fill:#00ff00;fill-opacity:1;stroke:#000000;stroke-width:0.10302893;stroke-miterlimit:4;stroke-dasharray:none"
       id="rect4136"
       width="63.896973"
       height="63.896973"
       x="0.051514465"
       y="988.4137" />
    <path
       style="fill:#0000ff;fill-opacity:1;stroke:#000000;stroke-width:0.5;stroke-miterlimit:4;stroke-dasharray:none"
       d="m 61.446476,1017.8162 c 0,13.2038 -3.07454,29.6937 -18.28701,29.6937 -15.21247,0 -39.2819502,-1.7769 -39.2819502,-14.9808 0,-13.2038 9.8524302,-41.10037 25.0649102,-41.10037 15.21247,0 32.50405,13.18357 32.50405,26.38747 z"
       id="path4241"
       inkscape:connector-curvature="0"
       sodipodi:nodetypes="sssss" />
    <path
       style="fill:#000080;fill-opacity:1;stroke:none;stroke-width:0.1;stroke-miterlimit:4;stroke-dasharray:none"
       id="path4269"
       d="m 24.377496,1018.4199 c 0.0225,-0.4891 10e-4,-0.979 0.0283,-1.4678 0.0615,-0.5408 0.31291,-1.0256 0.59846,-1.4795 0.33846,-0.4668 0.7156,-0.9058 1.09063,-1.3436 0.87709,-0.9005 2.0097,-1.651 3.24076,-1.9399 0.44758,-0.043 0.89378,-0.087 1.34111,-0.14 0.46925,-0.054 0.94242,-0.061 1.41423,-0.071 0.45615,0 0.91232,0 1.36847,0 0.39692,4e-4 0.79383,5e-4 1.19075,-2e-4 0.41752,0 0.83502,0 1.25253,0 0.52032,-0.04 0.9546,0.1288 1.3784,0.4132 0.51943,0.4175 1.10451,0.7387 1.67684,1.0755 0.56318,0.3131 1.11569,0.6401 1.63104,1.0276 0.42054,0.3525 0.87754,0.6567 1.31022,0.9937 0.3904,0.3093 0.75062,0.6538 1.10706,1.001 0.35564,0.342 0.69037,0.7052 1.05432,1.0382 0.41296,0.3643 0.88197,0.649 1.35252,0.93 0.37056,0.1875 0.76441,0.3326 1.15948,0.4598 0.42082,0.097 0.84617,0.1768 1.27191,0.2519 0.46907,0.074 0.94557,0.077 1.41925,0.084 0.5662,0.01 1.13244,10e-4 1.69865,0 0.51524,-7e-4 1.03047,8e-4 1.5457,-10e-4 0.45121,-0.072 0.91297,-0.084 1.36065,-0.1727 0.44003,-0.071 0.86891,-0.1853 1.28733,-0.3378 0.53572,-0.3178 1.11123,-0.5431 1.68639,-0.776 -0.18289,0.134 0.72548,-0.3761 0.54857,-0.2738 -4.07411,2.3562 -0.45506,0.1658 0.94676,-0.5151 0.84469,-0.4562 0.27522,-0.1509 -1.67813,0.9701 0,0 2.26861,-0.8728 2.26861,-0.8728 l 0,0 c -2.34453,1.3511 -1.4977,0.9122 -2.48491,1.4189 -0.1506,0.078 -0.5965,0.325 -0.45004,0.239 0.60778,-0.357 2.44455,-1.4046 1.82818,-1.0627 -0.96071,0.533 -1.85754,1.1696 -2.8729,1.5873 -0.57972,0.2363 -1.13806,0.511 -1.70529,0.7738 -0.43095,0.139 -0.87046,0.2452 -1.31901,0.3102 -0.45802,0.059 -0.91787,0.1148 -1.3791,0.1378 -0.51505,0 -1.03009,4e-4 -1.54513,10e-4 -0.56483,2e-4 -1.12966,0 -1.69447,-0.01 -0.48694,-0.01 -0.97775,-0.012 -1.45717,-0.1076 -0.43112,-0.086 -0.8683,-0.1497 -1.28833,-0.2814 -0.40607,-0.1415 -0.81782,-0.2818 -1.18716,-0.5059 -0.47788,-0.2938 -0.94071,-0.6107 -1.36796,-0.9756 -0.36895,-0.3332 -0.71316,-0.6915 -1.06778,-1.0397 -0.34993,-0.3406 -0.70354,-0.6786 -1.08699,-0.9819 -0.43178,-0.3357 -0.88739,-0.6394 -1.30666,-0.9912 -0.50686,-0.3814 -1.05052,-0.7031 -1.60317,-1.0136 -0.57478,-0.3409 -1.15852,-0.6692 -1.69455,-1.0707 -0.42662,-0.2441 -0.81314,-0.3274 -1.30625,-0.299 -0.42095,4e-4 -0.84188,0.01 -1.26283,0 -0.3959,-10e-4 -0.79179,0 -1.18769,0 -0.45431,0 -0.90867,0 -1.36291,0.01 -0.46651,0.01 -0.93318,0.027 -1.39641,0.087 -0.44214,0.052 -0.89172,0.072 -1.32469,0.1779 -0.78574,0.2782 -1.85554,1.0139 1.51441,-0.9481 0.0699,-0.041 -0.14071,0.08 -0.20735,0.1262 -0.0699,0.048 -0.13722,0.1003 -0.20178,0.1554 -0.0654,0.056 -0.12514,0.1182 -0.18771,0.1773 -0.37771,0.4282 -0.73991,0.8698 -1.09903,1.3134 -0.29294,0.4162 -0.54688,0.8617 -0.64829,1.3667 -0.0495,0.4772 -0.0198,0.9587 -0.0112,1.4377 0,0 -2.18665,1.1142 -2.18665,1.1142 z"
       inkscape:connector-curvature="0" />
    <path
       style="fill:#000080;fill-opacity:1;stroke:none;stroke-width:0.1;stroke-miterlimit:4;stroke-dasharray:none"
       id="path4271"
       d="m 25.572786,1038.0447 c 0.30171,-0.3045 0.55515,-0.6518 0.81187,-0.9939 0.34957,-0.4287 0.68078,-0.8723 1.05107,-1.2837 0.8681,-0.8203 1.92531,-1.6348 3.12994,-1.7841 0.50001,-0.031 1.00178,-0.027 1.50259,-0.024 0.47868,0 0.95739,0 1.43608,0 0.65495,-0.051 1.17154,0.3074 1.69372,0.6494 0.57442,0.4236 1.11637,0.8862 1.69556,1.3052 0.49223,0.3223 0.90886,0.726 1.30722,1.1544 0.33028,0.3636 0.66779,0.7204 1.00991,1.0728 0.36913,0.3655 0.83481,0.6054 1.31562,0.7894 0.40181,0.1363 0.82845,0.1488 1.24846,0.1587 0.51185,0.01 1.02377,0 1.53565,9e-4 0.45809,0 0.91618,-0.01 1.37428,0 0.54466,0.031 1.03193,0 1.55182,-0.1657 0.42441,-0.1971 0.86364,-0.3578 1.30403,-0.5142 0.20127,-0.047 0.40165,-0.083 0.60045,-0.1404 0,0 -1.93345,1.4816 -1.93345,1.4816 l 0,0 c -0.19749,0.047 -0.39725,0.087 -0.58756,0.1595 -0.43432,0.1624 -0.86639,0.3303 -1.30166,0.4895 -0.5273,0.1279 -1.05884,0.1293 -1.59945,0.1182 -0.45633,0 -0.91266,10e-4 -1.36899,0 -0.51641,0 -1.03294,0.01 -1.5493,0 -0.43928,-0.02 -0.88239,-0.062 -1.29231,-0.2341 -0.49715,-0.2211 -0.98275,-0.4836 -1.37046,-0.8723 -0.34179,-0.3545 -0.67795,-0.7142 -1.00705,-1.0805 -0.38599,-0.417 -0.79835,-0.8018 -1.26913,-1.1237 -0.56992,-0.4214 -1.10606,-0.8839 -1.68202,-1.2958 -0.53834,-0.3347 -0.99,-0.5764 -1.64375,-0.5181 -0.47644,-7e-4 -0.95284,-0.01 -1.4293,-0.01 -0.49531,3e-4 -0.9958,-0.014 -1.48553,0.071 -0.82675,0.231 -1.73572,0.9488 1.58587,-1.0057 0.0577,-0.034 -0.12039,0.059 -0.17704,0.095 -0.16234,0.1023 -0.2122,0.16 -0.35576,0.291 -0.3944,0.3822 -0.70765,0.8331 -1.0566,1.2553 -0.25998,0.3376 -0.50881,0.6828 -0.77611,1.0146 0,0 -2.26867,0.9397 -2.26867,0.9397 z"
       inkscape:connector-curvature="0" />
    <path
       style="fill:#000080;fill-opacity:1;stroke:none;stroke-width:0.1;stroke-miterlimit:4;stroke-dasharray:none"
       id="path4273"
       d="m 19.054786,1030.9425 c -0.3303,-0.268 -0.63442,-0.5638 -0.94626,-0.8519 -0.32172,-0.2682 -0.72503,-0.3751 -1.12941,-0.4424 -0.39372,-0.1047 -0.79672,-0.1594 -1.2023,-0.1881 -0.38443,-0.021 -0.76959,-0.019 -1.15444,-0.018 -0.34078,10e-4 -0.68155,0 -1.02233,0 -0.3755,0 -0.75098,0 -1.12647,0 -0.48378,-0.013 -0.96482,-0.019 -1.43223,0.1188 0.3249,-0.2339 -0.90893,0.4716 -0.537,0.2582 3.39969,-1.9509 2.26094,-1.3478 1.55526,-0.8532 -0.42496,0.2798 -0.84379,0.5655 -1.21253,0.9173 -0.71771,0.7114 -1.5486902,1.026 -2.5541702,1.4994 -0.0829,0.039 -0.52691,-0.2644 -0.59882,-0.3137 -0.26209,-0.1879 -0.50073,-0.3923 -0.71792,-0.6304 0,0 2.07718,-1.2616 2.07718,-1.2616 l 0,0 c 0.2056,0.2194 0.43527,0.4073 0.68548,0.575 0.10924,0.062 0.21753,0.1392 0.3472402,0.1548 0.048,0.01 0.18523,-0.042 0.1442,-0.016 -4.0953502,2.5566 -2.2019002,1.3804 -1.6278302,0.9224 0.35552,-0.3721 0.75554,-0.6875 1.19618,-0.9553 0.9882402,-0.7038 2.0135302,-1.4152 3.1790202,-1.7721 0.48374,-0.084 0.97058,-0.074 1.4602,-0.071 0.37972,0 0.75944,-0.01 1.13918,0 0.34005,-4e-4 0.6801,-10e-4 1.02015,-10e-5 0.38888,0 0.77822,0.01 1.16614,0.036 0.40944,0.044 0.81296,0.1202 1.21429,0.2122 0.43498,0.1015 0.86806,0.2489 1.20293,0.5573 0.30818,0.2994 0.62563,0.5857 0.968,0.8463 0,0 -2.09374,1.283 -2.09374,1.283 z"
       inkscape:connector-curvature="0" />
    <path
       style="fill:#000080;fill-opacity:1;stroke:none;stroke-width:0.1;stroke-miterlimit:4;stroke-dasharray:none"
       id="path4275"
       d="m 16.993946,1003.7044 c 0.51276,0.013 1.02572,0.012 1.53859,0.01 0.53942,8e-4 1.07885,-10e-4 1.61828,-9e-4 0.5701,0 1.1402,0 1.71031,0 0.54155,-2e-4 1.0831,0 1.62465,-8e-4 0.52553,0.013 1.05239,-0.053 1.56454,0.085 0.43616,0.081 0.81639,0.2783 1.20367,0.4828 0.3712,0.1711 0.74782,0.3083 1.15118,0.3769 0.36468,0.048 0.73351,0.045 1.10061,0.048 0.47797,-0.01 0.95643,0.019 1.43268,-0.025 0.29103,-0.033 0.54491,-0.1645 0.79683,-0.304 0.0891,-0.049 0.35331,-0.203 0.26485,-0.1525 -1.87671,1.0719 -2.38672,1.418 -1.56413,0.8722 0.30128,-0.2209 0.15045,-0.1087 0.45241,-0.3366 0,0 2.24699,-0.8939 2.24699,-0.8939 l 0,0 c -0.30337,0.2272 -0.15317,0.1118 -0.45062,0.3462 -0.95508,0.6881 -0.26727,0.2043 -2.56367,1.5265 -0.34869,0.2008 -0.72491,0.3491 -1.12932,0.3779 -0.48486,0.025 -0.97045,0.019 -1.45584,0.019 -0.37886,0 -0.76041,0 -1.13292,-0.083 -0.41253,-0.097 -0.80417,-0.2538 -1.18578,-0.4379 -0.37068,-0.1979 -0.75193,-0.3482 -1.16648,-0.4293 -0.50231,-0.087 -1.01516,-0.037 -1.52265,-0.049 -0.54075,0 -1.08152,-5e-4 -1.62229,-8e-4 -0.5718,7e-4 -1.14361,-7e-4 -1.71541,0 -0.53862,3e-4 -1.07722,0 -1.61584,-9e-4 -0.52203,0 -1.04414,0 -1.56607,0.01 0,0 1.98543,-1.4425 1.98543,-1.4425 z"
       inkscape:connector-curvature="0" />
  </g>
</svg>
